<?xml version="1.0" standalone="no"?>
<!DOCTYPE svg PUBLIC "-//W3C//DTD SVG 20010904//EN"
 "http://www.w3.org/TR/2001/REC-SVG-20010904/DTD/svg10.dtd">
<svg version="1.0" xmlns="http://www.w3.org/2000/svg"
 width="54.000000pt" height="54.000000pt" viewBox="0 0 54.000000 54.000000"
 preserveAspectRatio="xMidYMid meet">

<g transform="translate(0.000000,54.000000) scale(0.100000,-0.100000)"
fill="#35457F" stroke="none">
<path d="M120 446 c0 -46 3 -56 20 -61 28 -9 53 -51 47 -77 -4 -13 2 -31 14
-46 21 -28 25 -82 7 -100 -7 -7 -29 -12 -50 -12 l-38 0 0 -55 0 -55 110 0 110
0 0 39 c0 33 -4 40 -22 43 -17 2 -24 11 -26 31 -4 35 19 63 59 71 34 7 38 29
12 74 -17 29 -17 31 1 51 21 23 56 27 74 9 9 -9 12 5 12 65 l0 77 -165 0 -165
0 0 -54z m195 -3 c23 -26 32 -53 19 -53 -3 0 -14 10 -23 22 -22 27 -51 18 -51
-16 0 -19 7 -26 30 -31 53 -12 63 -54 25 -97 l-24 -28 -26 24 c-14 13 -25 32
-25 42 0 17 3 16 20 -6 16 -20 22 -23 37 -14 31 19 27 42 -11 58 -57 24 -64
57 -21 103 26 27 22 28 50 -4z"/>
<path d="M86 354 c-9 -8 -16 -24 -16 -34 0 -22 26 -50 46 -50 15 0 54 35 54
48 0 4 -7 18 -16 30 -18 26 -46 28 -68 6z"/>
<path d="M376 334 c-7 -19 10 -44 29 -44 19 0 36 25 29 44 -3 9 -16 16 -29 16
-13 0 -26 -7 -29 -16z"/>
<path d="M402 248 c-6 -26 -16 -34 -50 -46 -34 -11 -42 -18 -42 -38 0 -27 17
-33 26 -9 12 30 24 2 24 -56 0 -44 3 -60 13 -56 8 2 12 26 12 71 0 54 3 67 18
72 9 3 17 12 17 20 0 8 5 14 10 14 15 0 12 -62 -5 -110 -8 -23 -15 -49 -15
-56 0 -25 26 -15 37 14 l10 27 11 -28 c12 -28 32 -37 32 -13 0 7 -7 33 -15 56
-8 23 -15 56 -15 72 0 40 -26 98 -44 98 -9 0 -19 -14 -24 -32z"/>
<path d="M56 254 c-9 -8 -16 -31 -16 -50 l0 -34 80 0 80 0 0 33 c0 36 -25 67
-54 67 -15 0 -17 -6 -11 -39 7 -42 -6 -61 -30 -41 -10 9 -11 18 -4 37 16 42
-13 59 -45 27z"/>
</g>
</svg>
