<?xml version="1.0" encoding="utf-8" ?>
<svg xmlns="http://www.w3.org/2000/svg" xmlns:xlink="http://www.w3.org/1999/xlink" width="1024" height="1024">
	<defs>
		<linearGradient id="gradient_0" gradientUnits="userSpaceOnUse" x1="735.67706" y1="928.67407" x2="286.41028" y2="95.12632">
			<stop offset="0" stop-color="#092E45"/>
			<stop offset="1" stop-color="#144E6E"/>
		</linearGradient>
	</defs>
	<path fill="url(#gradient_0)" d="M505.979 37.7255C630.078 35.3028 748.176 83.6469 837.928 168.698C927.339 253.424 982.277 375.067 985.513 498.36C988.831 624.79 943.013 747.139 855.748 839.038C788.877 909.46 698.175 959.306 602.711 977.457C574.838 982.757 546.699 985.003 518.375 985.74C399.799 987.37 284.753 945.986 196.641 866.132C110.371 787.948 55.8824 687.144 41.3455 571.25C39.6257 557.54 38.799 543.765 38.1321 529.971C32.0877 404.936 78.0399 284.194 161.906 191.921C232.941 113.765 328.895 61.5947 433.081 44.3177C457.293 40.3026 481.506 38.8855 505.979 37.7255Z"/>
	<path fill="#143855" d="M596.953 883.168C598.309 883.901 599.001 885.866 599.685 887.218C597.219 889.78 591.861 897.172 588.493 897.766C587.362 897.213 586.992 896.834 586.57 895.614C586.269 894.739 586.138 893.749 586.123 892.832C590.2 890.19 593.515 886.568 596.953 883.168Z"/>
	<path fill="#143855" d="M507.702 821.515C512.902 822.456 516.263 821.764 521.006 819.677C521.503 820.247 521.801 820.42 521.949 821.178C520.899 822.249 519.757 823.303 518.823 824.473C518.577 824.633 518.334 824.798 518.086 824.955C514.525 827.202 510.296 827.48 506.823 830.174C499.661 835.729 494.057 843.821 487.747 850.334C472.384 866.189 456.443 881.489 441.585 897.831C440.225 896.324 438.344 894.632 438.457 892.427C438.467 892.231 438.516 892.04 438.545 891.846C447.438 885.329 454.711 875.784 462.408 867.913C476.64 853.361 491.253 839.285 504.957 824.218L507.702 821.515Z"/>
	<path fill="#F3CA5B" d="M499.692 796.452C503.425 793.009 507.643 790.609 512.879 790.859C517.225 791.066 521.418 793.121 524.253 796.423C527.045 799.673 528.414 804.075 527.954 808.338C527.418 813.303 524.794 816.694 521.006 819.677C516.263 821.764 512.902 822.456 507.702 821.515C503.277 819.606 500.264 816.115 496.927 812.768L496.339 810.126C495.463 805.687 497.645 800.287 499.692 796.452Z"/>
	<path fill="#F3CA5B" d="M521.949 821.178C524.734 819.312 526.998 816.82 529.298 814.403C543.041 826.479 555.243 839.774 568.088 852.751C573.622 858.342 594.51 876.916 596.953 883.168C593.515 886.568 590.2 890.19 586.123 892.832C580.457 886.771 574.404 881.249 568.602 875.339L518.823 824.473C519.757 823.303 520.899 822.249 521.949 821.178Z"/>
	<path fill="#F3CA5B" d="M496.262 813.272L496.927 812.768C500.264 816.115 503.277 819.606 507.702 821.515L504.957 824.218C491.253 839.285 476.64 853.361 462.408 867.913C454.711 875.784 447.438 885.329 438.545 891.846C434.719 888.491 431.034 885.099 427.51 881.424L467.315 841.427C476.842 831.755 485.706 821.886 496.262 813.272Z"/>
	<path fill="#ECA31D" d="M496.262 813.272L496.927 812.768C500.264 816.115 503.277 819.606 507.702 821.515L504.957 824.218C502.619 820.405 499.208 818.984 496.262 813.272Z"/>
	<path fill="#F3CA5B" d="M913.274 606.072L913.893 606.219L913.738 607.147C909.313 613.138 903.754 618.301 898.5 623.557C879.849 642.211 859.749 659.943 834.614 669.232C822.916 673.556 811.121 674.963 799.128 677.847C798.588 677.335 798.461 677.38 798.282 676.754C797.446 673.817 802.147 666.55 803.647 664.034C809.951 653.457 817.659 643.668 827.484 636.136C849.663 619.134 886.197 612.883 913.274 606.072Z"/>
	<path fill="#F3CA5B" d="M109.263 607.858C123.569 610.658 137.999 612.65 152.195 616.071C175.65 621.723 197.695 630.582 211.697 651.266C217.254 659.474 221.691 668.511 226.87 676.981C223.384 677.07 219.898 676.969 216.417 676.764C181.705 674.714 153.3 652.005 129.478 628.705C122.574 621.952 115.657 615.1 109.263 607.858Z"/>
	<path fill="#F3CA5B" d="M797.348 713.722C806.634 713.621 816.046 714.438 825.323 714.873C837.092 715.426 848.862 715.687 860.637 716.051C836.559 732.412 810.134 745.636 781.633 752.25C761.126 757.223 741.951 756.691 721.766 750.537C727.89 746.868 733.441 742.154 738.963 737.651C760.489 720.101 769.319 715.796 797.348 713.722Z"/>
	<path fill="#F3CA5B" d="M194.837 713.304C214.964 712.057 253.199 712.939 269.415 724.973C280.092 732.896 288.949 743.22 299.958 750.866L300.53 751.259C288.662 752.637 277.081 753.578 265.125 753.599C224.049 753.024 193.549 736.207 159.508 715.252C171.298 714.593 183.028 713.688 194.837 713.304Z"/>
	<path fill="#F3CA5B" d="M293.205 598.294C294.212 599.072 294.762 600.027 295.366 601.129C299.119 607.978 301.754 615.875 304.697 623.123C317.691 655.131 327.769 687.873 325.268 722.86C325.001 726.599 325.395 731.471 324.19 735.012C323.811 736.125 323.665 736.251 322.675 736.745L320.932 735.863C311.553 728.787 301.958 722.217 296.41 711.524C282.437 684.588 284.068 627.551 293.205 598.294Z"/>
	<path fill="#F3CA5B" d="M862.108 384.796C865.652 387.727 867.379 396.996 868.528 401.435C882.118 453.897 878.101 487.013 850.293 534.303L847.562 538.475C847.54 523.203 843.016 507.934 841.241 492.788C837.783 463.284 844.575 435.57 853.825 407.818C856.391 400.118 858.803 392.212 862.108 384.796Z"/>
	<path fill="#6F997D" d="M755.033 522.883C764.107 531.355 778.312 560.822 783.487 573.013C796.473 603.598 798.121 622.883 785.786 653.543L783.645 658.788C778.637 653.746 774.014 648.603 769.921 642.766C746.257 609.019 748.241 561.792 755.033 522.883Z"/>
	<path fill="#F3CA5B" d="M263.65 522.854C267.944 531.467 272.127 569.281 272.308 580.608C272.429 588.164 271.817 595.843 270.622 603.303C267.811 620.836 261.185 635.848 251.91 650.878C249.946 654.061 247.909 658.12 244.833 660.339C243.511 659.938 243.168 659.116 242.326 658.067C238.158 651.841 234.638 644.635 232.68 637.387C223.064 601.787 245.93 553.347 263.65 522.854Z"/>
	<path fill="#6F997D" d="M727.825 598.36C727.973 598.513 728.15 598.641 728.267 598.818C730.27 601.847 730.974 607.972 731.659 611.518C734.914 628.345 737.714 645.573 737.335 662.767C736.584 696.793 728.781 714.311 704.368 737.664L703.211 738.553L702.397 738.414C701.612 737.441 701.203 736.583 700.814 735.389C698.174 727.278 696.997 718.076 696.352 709.598C693.144 667.448 709.205 634.637 727.825 598.36Z"/>
	<path fill="#6F997D" d="M685.631 676.334C686.157 676.511 685.798 676.36 686.585 677.005C686.667 680.163 684.506 684.496 683.391 687.493C677.069 704.491 669.62 721.043 659.043 735.868C634.936 769.657 605.708 782.32 566.105 788.937C565.339 788.806 565.711 788.977 565.071 788.277C567.174 781.867 577.24 771.055 581.659 765.657C614.941 724.998 640.492 702.839 685.631 676.334Z"/>
	<path fill="#F3CA5B" d="M339.384 675.237C342.901 677.024 346.815 681.665 349.822 684.34C353.737 687.823 357.864 691.181 362.097 694.272C373.995 702.96 386.998 710.02 399.266 718.149C425.123 735.28 442.834 756.2 449.114 787.022C432.829 783.452 401.424 778.36 387.61 769.318C381.442 765.281 376.92 757.82 372.921 751.758C357.58 728.499 345.044 702.661 339.384 675.237Z"/>
	<path fill="#6F997D" d="M693.823 785.215C712.25 784.023 731.242 786.692 749.072 791.229C762.302 794.595 774.845 798.595 788.408 800.661C783.665 803.305 779.114 806.25 774.307 808.799C750.799 821.267 726.12 829.531 699.375 830.669C672.709 831.895 646.042 825.828 621.809 814.847C616.082 812.252 610.637 809.155 605.037 806.305C611.293 803.596 618.411 801.878 624.92 799.82C647.834 792.574 669.685 786.41 693.823 785.215Z"/>
	<path fill="#6F997D" d="M316.961 785.708C347.864 782.788 386.2 795.044 414.669 806.492C392.374 824.737 360.343 830.99 332.125 831.936C305.682 831.08 281.605 824.337 257.633 813.395C249.192 809.542 240.995 805.175 232.503 801.428C259.981 793.467 288.477 788.18 316.961 785.708Z"/>
	<defs>
		<linearGradient id="gradient_1" gradientUnits="userSpaceOnUse" x1="566.65839" y1="169.70914" x2="438.45145" y2="241.31706">
			<stop offset="0" stop-color="#F6B225"/>
			<stop offset="1" stop-color="#F9CE61"/>
		</linearGradient>
	</defs>
	<path fill="url(#gradient_1)" d="M512.952 127.811C515.785 129.884 516.101 137.224 517.334 140.596C520.937 150.449 530.205 156.614 534.547 165.981C538.09 173.624 535.368 180.823 532.64 188.173C540.811 181.278 547.886 180.236 558.249 179.557C556.571 186.388 552.718 190.697 552.023 198.19L552.213 198.551L552.54 199.148L552.867 199.765C555.422 204.491 558.492 205.408 563.368 206.851C570.343 205.29 573.954 201.881 579.03 197.059C588.05 205.655 592.909 214.344 598.253 225.451C569.898 218.41 540.567 216.134 511.494 214.52C503.956 214.858 496.426 214.924 488.901 215.556C468.092 217.302 447.046 220.93 426.66 225.429C430.875 215.687 436.082 203.634 444.924 197.179C451.032 200.135 454.336 204.942 461.426 206.561C465.873 205.489 468.263 204.306 471.379 200.929C472.812 192.372 468.248 185.88 464.161 178.84C474.062 179.591 483.468 180.067 491.266 186.945C486.356 163.484 493.294 165.559 504.375 148.26C508.414 141.954 510.635 134.868 512.952 127.811Z"/>
	<path fill="#4E827F" d="M829.118 575.988C831.242 578.063 834.367 580.542 835.341 583.425C832.756 588.405 831.556 594.835 829.749 600.185C827.49 606.87 824.631 613.497 821.814 619.967C805.862 656.615 781.948 691.273 754.027 719.784C738.794 735.338 722.478 748.864 703.969 760.357C668.092 782.636 608.873 803.768 566.943 810.86C554.683 812.934 542.062 813.905 529.633 814.031C532.461 807.803 531.592 803.396 529.871 797.052C539.617 795.976 549.264 795.578 559.009 794.158C596.563 788.687 633.509 776.942 667.879 760.924C745.332 724.827 800.255 655.4 829.118 575.988Z"/>
	<path fill="#6F997D" d="M184.18 586.393C189.211 586.61 191.331 584.775 195.078 581.698C201.688 596.975 208.558 612.055 216.742 626.569C242.07 671.487 279.492 714.154 322.771 742.543C339.926 753.795 358.959 763.274 378.017 770.816C412.777 784.571 462.399 796.137 499.692 796.452C497.645 800.287 495.463 805.687 496.339 810.126L495.737 810.271C495.088 811.46 494.477 812.684 493.119 813.191C488.457 814.931 474.805 811.692 469.379 810.792C419.623 802.541 369.808 789.491 326.189 763.366C274.865 732.627 237.236 690.773 207.557 639.25C198.107 622.845 188.788 604.862 184.18 586.393Z"/>
	<path fill="#F3CA5B" d="M789.563 457.419C813.942 487.067 838.163 514.787 841.639 554.87C858.292 528.693 880.702 512.783 907.249 497.744C914.378 493.705 921.6 489.467 929.038 486.034C924.006 497.846 918.346 509.245 912.138 520.481C897.892 546.266 881.022 569.134 852.751 580.53C849.12 581.993 840.591 586.153 836.747 584.484C836.231 584.26 835.748 583.804 835.341 583.425C834.367 580.542 831.242 578.063 829.118 575.988C822.38 567.97 815.857 560.013 810.464 550.992C793.709 522.96 790.65 489.39 789.563 457.419Z"/>
	<path fill="#F3CA5B" d="M177.847 554.166C173.648 534.977 168.067 525.115 160.548 507.676C147.575 477.586 146.019 445.175 152.898 413.394C154.023 408.201 157.854 390.711 161.58 388.312C162.939 388.715 163.038 389.402 163.773 390.546L164.735 390.449C169.892 395.071 174.646 400.328 179.549 405.234C193.511 419.204 207.02 433.52 220.824 447.627C223.988 450.862 230.016 458.535 233.237 460.77L237.672 457.134C232.164 504.47 225.966 543.539 195.078 581.698C191.331 584.775 189.211 586.61 184.18 586.393C179.217 583.625 173.319 582.609 168.04 580.539C134.628 567.437 111.375 521.088 98.0758 489.949C103.514 492.068 108.792 495.225 113.87 498.088C133.253 509.017 153.105 521.858 167.741 538.86C171.81 543.587 174.834 548.744 177.847 554.166Z"/>
	<path fill="#143855" d="M163.773 390.546L164.735 390.449C169.892 395.071 174.646 400.328 179.549 405.234C193.511 419.204 207.02 433.52 220.824 447.627C223.988 450.862 230.016 458.535 233.237 460.77C212.329 482.146 194.055 506.895 186.393 536.266C184.543 543.356 183.644 550.514 182.619 557.751C174.792 531.56 184.439 506.213 183.936 479.83C183.34 448.594 173.447 419.875 163.773 390.546Z"/>
	<defs>
		<linearGradient id="gradient_2" gradientUnits="userSpaceOnUse" x1="739.09271" y1="468.30627" x2="283.41351" y2="449.04605">
			<stop offset="0" stop-color="#EAA726"/>
			<stop offset="1" stop-color="#F9CF64"/>
		</linearGradient>
	</defs>
	<path fill="url(#gradient_2)" d="M506.142 230.739C564.843 229.756 623.063 251.266 666.559 290.887C711.25 331.596 737.446 389.146 740.282 449.301C743.151 510.175 719.256 570.348 678.405 615.045C636.936 660.419 577.771 684.461 516.958 687.269C458.73 688.163 402.964 666.531 359.196 628.391C313.861 588.885 286.863 532.402 282.849 472.55C279.123 416.991 298.994 356.227 335.798 314.285C381.606 262.081 436.965 235.255 506.142 230.739Z"/>
	<path fill="#C47E34" d="M500.238 264.203L501.179 264.115C548.045 260.048 600.492 278.374 636.275 308.461C677.336 342.985 702.715 393.164 707.265 446.455C711.745 498.927 692.428 550.008 658.781 589.828C625.6 629.096 575.94 652.13 525.121 656.407L521.858 656.717C511.663 657.587 501.44 656.979 491.292 655.864C453.615 651.724 418.02 637.264 388.928 612.771C348.117 578.41 321.244 528.919 316.744 475.601C312.173 421.431 329.527 372.9 364.534 331.636C392.566 298.594 433.556 275.512 476.027 267.147C484.048 265.567 492.104 264.866 500.238 264.203Z"/>
	<path fill="#FEFEFE" d="M477.44 397.039C475.267 395.918 473.437 393.99 472.696 391.593C472.345 390.458 472.357 389.298 473.027 388.271C474.434 386.113 478.218 385.595 480.536 385.476C490.576 384.959 500.83 385.836 510.895 385.806C522.673 385.77 535.126 384.794 546.847 385.8C548.768 385.965 551.414 386.137 552.845 387.599C553.769 388.543 553.976 389.653 553.846 390.928C553.674 392.614 552.393 395.067 551.031 396.089C550.191 396.719 549.008 396.932 548.003 397.163C538.339 395.853 528.701 396.859 519.001 396.971C505.151 397.132 491.291 397.046 477.44 397.039Z"/>
	<path fill="#FEFEFE" d="M510.926 280.633C514.071 280.795 517.169 281.448 520.043 282.763C524.136 284.637 527.282 287.965 528.797 292.218C530.392 296.698 530.19 301.668 527.952 305.896C524.993 311.487 519.864 313.654 514.186 315.521C510.399 315.536 507.206 315.23 503.755 313.46C499.741 311.402 496.645 307.832 495.296 303.515C493.883 298.998 494.392 294.085 496.725 289.963C499.982 284.209 504.861 282.182 510.926 280.633Z"/>
	<path fill="#143855" d="M343.979 510.039L418.115 509.542C415.317 519.113 409.566 526.4 400.814 531.237C391.389 536.445 380.564 537.625 370.228 534.613C360.702 531.838 351.719 525.053 346.876 516.312C345.766 514.31 344.884 512.141 343.979 510.039Z"/>
	<path fill="#143855" d="M603.552 509.577C629.461 509.724 655.342 510.346 681.257 509.828C680.627 511.551 679.816 513.174 678.945 514.787C673.806 524.307 664.829 531.151 654.5 534.211C643.444 537.488 630.926 536.244 620.813 530.687C612.494 526.117 606.272 518.694 603.552 509.577Z"/>
	<path fill="#FEFEFE" d="M337.7 489.15C344.411 488.855 422.641 488.403 423.987 488.945C422.054 495.786 420.256 502.768 418.115 509.542L343.979 510.039C341.701 503.101 340.46 495.944 337.7 489.15Z"/>
	<path fill="#FEFEFE" d="M644.917 468.476C644.997 471.982 645.055 475.484 645.063 478.991C650.445 479.022 675.959 480.096 679.321 478.495C680.717 479.317 682.571 478.882 684.077 478.508C687.174 477.776 690.579 477.424 693.367 479.267C694.715 480.159 695.829 481.46 696.215 483.061C696.503 484.25 696.285 485.578 695.563 486.576C694.167 488.509 691.953 488.846 689.739 488.984C689.235 489.015 688.73 489.019 688.225 489.024C685.774 495.9 683.14 502.774 681.257 509.828C655.342 510.346 629.461 509.724 603.552 509.577C601.417 506.574 598.137 493.989 596.614 489.583C593.762 488.008 591.09 486.977 589.899 483.763C590.055 482.933 589.998 482.409 590.605 481.766C593.442 478.764 599.051 478.324 602.935 477.97C604.597 478.588 605.834 478.538 607.588 478.425C617.875 478.092 629.918 476.86 639.979 479.143C641.248 479.483 642.087 479.57 643.394 479.419C645.557 477.235 644.653 471.568 644.917 468.476Z"/>
	<path fill="#F3CA5B" d="M644.917 468.476C644.997 471.982 645.055 475.484 645.063 478.991C650.445 479.022 675.959 480.096 679.321 478.495C680.717 479.317 682.571 478.882 684.077 478.508C687.174 477.776 690.579 477.424 693.367 479.267C694.715 480.159 695.829 481.46 696.215 483.061C696.503 484.25 696.285 485.578 695.563 486.576C694.167 488.509 691.953 488.846 689.739 488.984C689.235 489.015 688.73 489.019 688.225 489.024C676.69 489.01 599.068 488.122 596.614 489.583C593.762 488.008 591.09 486.977 589.899 483.763C590.055 482.933 589.998 482.409 590.605 481.766C593.442 478.764 599.051 478.324 602.935 477.97C604.597 478.588 605.834 478.538 607.588 478.425C617.875 478.092 629.918 476.86 639.979 479.143C641.248 479.483 642.087 479.57 643.394 479.419C645.557 477.235 644.653 471.568 644.917 468.476Z"/>
	<path fill="#FEFEFE" d="M477.198 568.988C500.604 568.987 524.127 569.492 547.521 568.972C551.254 568.998 554.706 569.097 558.172 570.717C562.055 572.532 565.197 576.265 566.493 580.344C566.962 581.819 567.084 583.121 566.358 584.539L563.965 585.163C565.979 587.187 574.398 585.698 577.538 585.895C581.611 586.149 585.664 586.974 588.412 590.25C593.346 596.134 592.644 604.896 591.843 612L432.315 612.044C431.728 605.771 431.443 597.909 434.567 592.227C436.032 589.564 438.441 587.426 441.41 586.63C448.589 584.705 472.089 585.87 481.159 585.932L529.236 585.938C534.197 585.918 543.458 586.705 547.832 585.522C538.469 584.193 528.03 585.044 518.526 585.041L458.25 585.226C459.029 581.001 459.925 576.791 462.954 573.529C466.752 569.438 471.969 569.047 477.198 568.988Z"/>
	<path fill="#F3CA5B" d="M477.44 397.039C491.291 397.046 505.151 397.132 519.001 396.971C528.701 396.859 538.339 395.853 548.003 397.163L547.716 502.925C547.584 524.911 547.002 546.992 547.521 568.972C524.127 569.492 500.604 568.987 477.198 568.988C477.817 544.893 477.512 520.743 477.513 496.639L477.44 397.039Z"/>
	<path fill="#FEFEFE" d="M530.539 404.046C531.861 404.423 532.636 404.707 533.748 405.571C535.942 412.532 534.379 443.01 534.318 452.482L534.071 521.731C533.997 534.005 535.343 547.234 533.744 559.405C532.531 559.129 531.316 558.82 530.573 557.726C530.015 556.904 529.744 555.887 529.734 554.9C529.653 547.486 529.997 539.976 530.005 532.542L530.025 458.34C530.009 441.95 528.236 419.619 530.539 404.046Z"/>
	<path fill="#FEFEFE" d="M489.986 404.317C491.027 404.507 491.96 404.848 492.955 405.2C493.904 406.269 494.3 407.185 494.334 408.611C494.45 413.464 494.083 418.386 494.042 423.25L494.003 458.87C494.085 492.374 494.571 525.846 493.991 559.354C492.489 559.486 491.385 559.254 490.207 558.367C489.334 552.6 489.702 546.296 489.695 540.458L489.676 511.012L489.986 404.317Z"/>
	<path fill="#FEFEFE" d="M516.999 404.252C518.507 404.495 519.427 404.612 520.597 405.7C522.426 409.92 521.086 544.251 520.999 559.113L518.457 558.819C517.461 557.794 517.054 557.112 516.892 555.654C516.569 552.746 517.08 549.601 517.005 546.643C516.692 534.367 516.7 522.108 516.693 509.83L516.999 404.252Z"/>
	<path fill="#FEFEFE" d="M503.5 404.446C504.741 404.634 505.8 404.898 506.979 405.326C510.063 408.919 507.53 543.375 507.527 559.32C506.344 559.197 505.502 559.05 504.425 558.537C503.503 557.249 503.122 556.125 503.063 554.549C502.276 533.693 503.261 512.567 503.447 491.69L503.5 404.446Z"/>
	<path fill="#FEFEFE" d="M339.573 478.498C352.438 452.405 362.137 424.963 374.481 398.694C377.459 392.355 372.448 390.497 376.107 384.702L375.755 384.133C370.737 382.975 364.01 386.501 360.508 380.885C358.256 377.275 359.189 371.237 360.249 367.326C360.603 366.018 361.076 365.587 362.269 364.972C369.064 361.471 393.497 366.325 404.162 363.367C412.176 361.144 419.939 356.361 427.605 353.051C446.493 344.896 465.523 337.037 484.338 328.718C491.217 325.677 498.06 320.889 505.54 319.635C513.84 318.242 521.876 320.251 529.497 323.474C536.344 326.37 542.991 329.715 549.803 332.687L591.733 350.551C601.307 354.708 612.408 360.751 622.467 363.073C631.231 365.095 659.65 361.257 664.788 365.352C665.332 365.786 665.837 366.619 666.073 367.266C667.281 370.579 667.25 377.911 665.399 381.037C664.512 382.536 663.145 383.181 661.494 383.497C657.235 384.314 651.875 383.588 647.509 383.427C648.813 385.4 650.758 387.583 650.076 390.099C649.834 390.989 649.355 391.872 648.939 392.69C650.885 400.651 654.914 407.703 657.959 415.261C666.483 436.419 675.638 457.324 684.077 478.508C682.571 478.882 680.717 479.317 679.321 478.495C675.959 480.096 650.445 479.022 645.063 478.991C645.055 475.484 644.997 471.982 644.917 468.476C644.653 471.568 645.557 477.235 643.394 479.419C642.087 479.57 641.248 479.483 639.979 479.143C629.918 476.86 617.875 478.092 607.588 478.425C605.834 478.538 604.597 478.588 602.935 477.97C610.894 460.741 617.764 442.84 625.035 425.299C628.603 416.69 634.114 405.909 636.367 397.097C637.155 394.012 636.624 391.276 636.137 388.204L638.482 383.511L449.25 384.015C427.97 384.122 406.51 383.26 385.262 383.824C386.801 385.604 388.735 387.358 388.374 389.948C388.163 391.466 387.242 393.126 386.6 394.521C389.441 402.623 393.17 410.452 396.366 418.428C404.398 438.477 412.547 458.461 421.044 478.32C423.717 477.994 426.253 477.678 428.548 479.386C429.948 480.427 430.951 482.127 430.987 483.895C431.012 485.129 430.545 486.367 429.677 487.252C428.207 488.748 425.984 489.087 423.987 488.945C422.641 488.403 344.411 488.855 337.7 489.15C336.124 488.994 334.495 488.487 333.184 487.582C331.948 486.729 331.052 485.384 330.979 483.853C330.917 482.579 331.43 481.321 332.282 480.384C334.188 478.292 336.983 478.457 339.573 478.498Z"/>
	<path fill="#F3CA5B" d="M510.12 329.145C512.999 329.26 515.792 329.359 518.452 330.613C522.018 332.293 524.803 335.244 526.104 338.982C527.352 342.569 527.157 346.566 525.428 349.959C523.264 354.205 519.456 356.29 515.128 357.727C512.004 357.952 508.808 357.765 505.945 356.392C502.415 354.7 499.777 351.774 498.596 348.022C497.449 344.378 497.774 340.295 499.54 336.902C501.762 332.636 505.67 330.485 510.12 329.145Z"/>
	<path fill="#143855" d="M536.352 341.205C542.909 342.053 558.949 349.864 566.039 352.827L594.403 364.436L584.625 364.47C565.133 363.58 545.459 363.971 525.942 363.958C527.126 362.961 528.245 361.896 529.335 360.798C535.04 355.053 536.363 349.014 536.352 341.205Z"/>
	<path fill="#143855" d="M487.065 340.482L487.587 340.986C487.691 342.966 487.897 344.956 488.249 346.908C489.592 354.348 493.344 359.918 499.469 364.245L443.434 364.214C438.789 364.26 434.155 364.232 429.51 364.152C448.93 356.868 468.282 349.322 487.065 340.482Z"/>
	<path fill="#C47E34" d="M640.55 396.393C639.519 423.874 639.99 451.631 639.979 479.143C629.918 476.86 617.875 478.092 607.588 478.425C618.994 451.234 630.149 423.989 640.55 396.393Z"/>
	<path fill="#C47E34" d="M382.78 395.576C388.08 407.35 392.394 419.659 397.161 431.659C403.396 447.356 410.043 462.894 416.376 478.555C405.555 477.645 394.345 477.675 383.524 478.582L383.538 430.247C383.535 418.694 383.846 407.092 382.78 395.576Z"/>
	<path fill="#C47E34" d="M645.047 396.482C651.389 409.383 656.388 422.854 661.807 436.155C667.567 450.294 673.702 464.303 679.321 478.495C675.959 480.096 650.445 479.022 645.063 478.991C645.055 475.484 644.997 471.982 644.917 468.476L645.047 396.482Z"/>
	<path fill="#C47E34" d="M344.626 477.958C357.602 451.034 367.612 423.143 379.197 395.728C379.379 402.658 378.994 409.675 378.834 416.609L378.777 457.397C378.768 464.125 378.002 471.844 379.134 478.442C380.476 479.202 382.032 478.879 383.524 478.582C394.345 477.675 405.555 477.645 416.376 478.555C418.145 478.859 419.316 478.809 421.044 478.32C423.717 477.994 426.253 477.678 428.548 479.386C429.948 480.427 430.951 482.127 430.987 483.895C431.012 485.129 430.545 486.367 429.677 487.252C428.207 488.748 425.984 489.087 423.987 488.945C422.641 488.403 344.411 488.855 337.7 489.15C336.124 488.994 334.495 488.487 333.184 487.582C331.948 486.729 331.052 485.384 330.979 483.853C330.917 482.579 331.43 481.321 332.282 480.384C334.188 478.292 336.983 478.457 339.573 478.498C340.258 478.695 340.483 478.787 341.247 478.87C342.46 479.002 343.673 478.702 344.626 477.958Z"/>
	<path fill="#F3CA5B" d="M378.482 478.574C378.405 470.905 377.626 419.978 378.834 416.609L378.777 457.397C378.768 464.125 378.002 471.844 379.134 478.442C380.476 479.202 382.032 478.879 383.524 478.582C394.345 477.675 405.555 477.645 416.376 478.555C418.145 478.859 419.316 478.809 421.044 478.32C423.717 477.994 426.253 477.678 428.548 479.386C429.948 480.427 430.951 482.127 430.987 483.895C431.012 485.129 430.545 486.367 429.677 487.252C428.207 488.748 425.984 489.087 423.987 488.945C422.641 488.403 344.411 488.855 337.7 489.15C336.124 488.994 334.495 488.487 333.184 487.582C331.948 486.729 331.052 485.384 330.979 483.853C330.917 482.579 331.43 481.321 332.282 480.384C334.188 478.292 336.983 478.457 339.573 478.498C340.258 478.695 340.483 478.787 341.247 478.87C342.46 479.002 343.673 478.702 344.626 477.958C348.87 479.134 356.673 478.1 361.255 478.054C367.026 477.995 372.729 478.08 378.482 478.574Z"/>
</svg>
